# xmcd CD database file
#
# Track frame offsets:
#	150
#	47731
#	76326
#
# Disc length: 1259 seconds
#
# Revision: 0
# Processed by: cddbd v1.4PL0 Copyright (c) Steve Scherf et al.
# Submitted via: CDex 1.50beta9
#
DISCID=1a04e903
DTITLE=Ludo's Jazz Duo - Pluie Time
DYEAR=1900
DGENRE=Jazz
TTITLE0=Voyage Nocturne
TTITLE1=Pluie-Time
TTITLE2=Ludo's Valse
EXTD=
EXTT0=
EXTT1=
EXTT2=
PLAYORDER=
